Coordinates
version=1
nRows=15
nColumns=42
inDegrees=yes

Units are S.I. units (second, meters, Newtons, ...)
If the header above contains a line with 'inDegrees', this indicates whether rotational values are in degrees (yes) or radians (no).

endheader
time	pelvis_tilt	pelvis_list	pelvis_rotation	pelvis_tx	pelvis_ty	pelvis_tz	hip_flexion_r	hip_adduction_r	hip_rotation_r	knee_angle_r	knee_adduction_r	knee_angle_r_beta	ankle_angle_r	subtalar_angle_r	mtp_angle_r	hip_flexion_l	hip_adduction_l	hip_rotation_l	knee_angle_l	knee_adduction_l	knee_angle_l_beta	ankle_angle_l	subtalar_angle_l	mtp_angle_l	lumbar_extension	lumbar_bending	lumbar_rotation	arm_flex_r	arm_add_r	arm_rot_r	elbow_flex_r	pro_sup_r	wrist_flex_r	wrist_dev_r	arm_flex_l	arm_add_l	arm_rot_l	elbow_flex_l	pro_sup_l	wrist_flex_l	wrist_dev_l
      2.68000000	     -2.85227666	     -1.95428902	      3.18380548	      1.23125384	      0.88706798	     -0.15751977	      5.12911830	     -1.07324929	     -6.32405747	     10.74394505	     11.23998268	      0.18751722	     10.24405851	      1.77181781	     -7.50039363	     19.92606731	    -14.93861343	      6.80654682	     57.69319296	     24.33695537	      1.00693617	      9.57191934	     -7.50300244	     -7.50039363	    -12.60399636	      5.24551345	      1.86458917	      0.77777650	    -17.09543822	     -4.03044007	     30.56249876	     90.00000001	      0.00000000	      0.00000000	     -9.15861470	    -10.15733037	     -0.14680105	     25.34089318	     90.00000001	      0.00000000	      0.00000000
      2.69000000	     -2.80089470	     -1.85972173	      2.79349045	      1.24085901	      0.88710187	     -0.15725283	      4.11387526	     -1.07327985	     -6.05154617	     10.14100075	     11.23705996	      0.17699385	     10.62949898	      2.16010817	     -7.50038520	     20.84474785	    -14.73907730	      6.09545640	     56.30433120	     23.97979990	      0.98269596	     10.15499463	     -8.15988985	     -7.50038520	    -12.65072369	      4.98980288	      2.13330871	      1.25276363	    -17.29487704	     -3.81865231	     31.14103093	     90.00000001	      0.00000000	      0.00000000	     -9.64062823	     -9.82516476	     -0.36318915	     25.10818366	     90.00000001	      0.00000000	      0.00000000
      2.70000000	     -2.88894140	     -1.99141725	      2.44376037	      1.25022154	      0.88668788	     -0.15699429	      3.46575301	     -0.89036302	     -6.38993443	     10.03267124	     11.23052523	      0.17510315	     10.77608553	      2.23921200	     -7.50038142	     22.04845392	    -14.80798853	      5.47239848	     55.00256864	     23.60506503	      0.95997592	     10.27409241	     -8.10462361	     -7.50038142	    -12.52521482	      5.00570014	      2.50132792	      1.80448469	    -17.52271346	     -3.78730308	     31.55003356	     90.00000001	      0.00000000	      0.00000000	    -10.12735702	     -9.54196548	     -0.38646132	     25.07477653	     90.00000001	      0.00000000	      0.00000000
      2.71000000	     -2.72387763	     -1.76484700	      2.12257142	      1.25990138	      0.88672081	     -0.15692353	      2.10786412	     -1.00067068	     -5.22035946	      8.86605676	     11.23874440	      0.15474188	     11.16323942	      2.14052195	     -7.50035284	     22.52941185	    -14.40660483	      5.53857925	     52.62692796	     23.89149262	      0.91851317	     10.08431994	    -11.02373729	     -7.50035284	    -12.71066396	      4.59391072	      2.61617966	      1.86423270	    -17.93348536	     -2.45685522	     32.93031590	     90.00000001	      0.00000000	      0.00000000	    -10.32127793	     -8.97224312	     -1.84215811	     24.23388877	     90.00000001	      0.00000000	      0.00000000
      2.72000000	     -2.65036209	     -1.68397627	      1.76344674	      1.26939036	      0.88626897	     -0.15691320	      1.16337110	     -1.10065628	     -4.98899047	      8.46733404	     11.35534210	      0.14778286	     11.62953619	      2.42892913	     -7.50034373	     23.25752356	    -14.19764802	      4.74837763	     50.66445191	     23.41564441	      0.88426150	     10.42193330	    -11.37103504	     -7.50034373	    -12.77591253	      4.37690118	      2.80650494	      2.43541507	    -18.12386031	     -2.32283116	     33.39272709	     90.00000001	      0.00000000	      0.00000000	    -10.77348420	     -8.67492407	     -1.98842353	     24.12215890	     90.00000001	      0.00000000	      0.00000000
      2.73000000	     -2.64612398	     -1.66770998	      1.44955153	      1.27881039	      0.88560169	     -0.15688432	      0.36431182	     -1.07392636	     -4.84558087	      8.21713755	     11.30749044	      0.14341611	     12.00753239	      2.67543702	     -7.50033696	     24.03045862	    -14.03604371	      3.99881538	     48.54227991	     22.89212933	      0.84722261	     10.50949983	    -11.50819241	     -7.50033696	    -12.77521691	      4.21763513	      2.99893040	      2.93376928	    -18.30100168	     -2.16401284	     33.94806498	     90.00000001	      0.00000000	      0.00000000	    -11.18023963	     -8.39756716	     -2.11075877	     23.99130568	     90.00000001	      0.00000000	      0.00000000
      2.74000000	     -2.57270821	     -1.70624828	      1.18934568	      1.28821209	      0.88488771	     -0.15699328	     -0.63012402	     -1.02758686	     -4.36320005	      7.66691972	     11.39393569	      0.13381299	     12.35593339	      2.63587984	     -7.50031378	     24.59515600	    -13.94826760	      4.07366540	     45.92435432	     23.02524530	      0.80153119	      9.83534972	    -13.21774631	     -7.50031378	    -12.85678106	      4.13915013	      3.19167618	      3.17396210	    -18.73293850	     -1.34223809	     35.01742675	     90.00000001	      0.00000000	      0.00000000	    -11.35832158	     -7.97686876	     -2.81479352	     23.49564011	     90.00000001	      0.00000000	      0.00000000
      2.75000000	     -2.54136004	     -1.67828378	      0.88781783	      1.29757468	      0.88397868	     -0.15720308	     -1.39965399	     -1.11310899	     -4.23222040	      7.55107815	     11.48859260	      0.13179118	     12.83866264	      2.81684569	     -7.50030642	     25.19422175	    -13.75153373	      3.19663710	     43.50951716	     22.36920703	      0.75938433	      9.64597258	    -13.07157828	     -7.50030642	    -12.89760697	      3.98507583	      3.40168907	      3.65142186	    -18.94554682	     -1.22878913	     35.49052310	     90.00000001	      0.00000000	      0.00000000	    -11.68659549	     -7.70823309	     -2.89003730	     23.44523634	     90.00000001	      0.00000000	      0.00000000
      2.76000000	     -2.67570292	     -2.07462319	      0.72853676	      1.30675948	      0.88252093	     -0.15739091	     -1.92378742	     -0.71797700	     -4.56467026	      7.60260660	     11.55811469	      0.13269052	     13.02984097	      2.87371807	     -7.50030326	     26.26126911	    -14.00462393	      2.26964348	     41.59741906	     21.50993684	      0.72601192	      9.49525808	    -12.67319443	     -7.50030326	    -12.74481351	      4.33464002	      3.59093875	      4.18556196	    -19.23219914	     -1.23930504	     35.87720041	     90.00000001	      0.00000000	      0.00000000	    -11.99969611	     -7.46722513	     -2.88158058	     23.50149683	     90.00000001	      0.00000000	      0.00000000
      2.77000000	     -2.48255531	     -1.77868553	      0.34545842	      1.31634741	      0.88176988	     -0.15774651	     -2.92502986	     -1.09140010	     -3.95981026	      7.34914092	     11.58310674	      0.12826671	     13.80574038	      3.26945473	     -7.50029635	     26.21227396	    -13.57144311	      1.44607152	     38.37665283	     21.12157566	      0.66979895	      8.44228262	    -12.56476599	     -7.50029635	    -12.97628420	      3.85769925	      3.84436509	      4.43643689	    -19.45927406	     -0.91362295	     36.64505389	     90.00000001	      0.00000000	      0.00000000	    -12.23433753	     -7.12222208	     -2.98176784	     23.23776573	     90.00000001	      0.00000000	      0.00000000
      2.78000000	     -2.47730710	     -1.91160275	      0.14541280	      1.32563224	      0.88053908	     -0.15809467	     -3.71394518	     -0.95886528	     -3.62544640	      7.07919477	     11.58418383	      0.12355526	     14.15103810	      3.17783770	     -7.50027300	     26.55791715	    -13.57619459	      1.52718080	     35.21940987	     21.11930681	      0.61469466	      6.50665131	    -14.69149023	     -7.50027300	    -13.02801356	      3.89638070	      4.01461294	      4.56122925	    -19.95601661	      0.00570826	     37.89934640	     90.00000001	      0.00000000	      0.00000000	    -12.25881404	     -6.83212802	     -3.42863181	     22.73796402	     90.00000001	      0.00000000	      0.00000000
      2.79000000	     -2.48840292	     -2.01626046	     -0.14136341	      1.33502405	      0.87917203	     -0.15848078	     -4.35970656	     -0.92210419	     -3.51938801	      7.13917640	     11.63493497	      0.12460213	     14.60149047	      3.33888840	     -7.50026714	     26.93535136	    -13.58887429	      0.23807433	     32.56843334	     20.31239313	      0.56842639	      5.30153795	    -13.87960432	     -7.50026714	    -13.03901066	      3.89065632	      4.27053898	      4.95373443	    -20.19453793	      0.06323438	     38.31958499	     90.00000001	      0.00000000	      0.00000000	    -12.48399502	     -6.59529030	     -3.43163252	     22.76595268	     90.00000001	      0.00000000	      0.00000000
      2.80000000	     -2.55989224	     -2.21932368	     -0.38639952	      1.34447911	      0.87765047	     -0.15887736	     -4.93788729	     -0.70064068	     -3.48755519	      7.21369337	     11.49662492	      0.12590270	     14.94761790	      3.49107894	     -7.50026278	     27.36015524	    -13.70730458	     -1.12175079	     29.98602698	     19.48527247	      0.52335490	      4.07474000	    -13.16528883	     -7.50026278	    -12.97593300	      4.00322019	      4.47230887	      5.30991909	    -20.42852201	      0.13659892	     38.78494323	     90.00000001	      0.00000000	      0.00000000	    -12.73791740	     -6.34412406	     -3.42031449	     22.75312342	     90.00000001	      0.00000000	      0.00000000
      2.81000000	     -2.45481749	     -2.25104903	     -0.62846958	      1.35404531	      0.87639505	     -0.15945084	     -5.85680992	     -0.83463208	     -3.13629127	      6.95161705	     11.74383449	      0.12132861	     15.42721564	      3.67955398	     -7.50024692	     27.20871262	    -13.63943577	     -1.63670507	     26.59890643	     19.19749963	      0.46423849	      1.49164875	    -14.27761963	     -7.50024692	    -13.13562988	      3.92854550	      4.72077918	      5.36689062	    -20.88593411	      0.71510128	     39.89998007	     90.00000001	      0.00000000	      0.00000000	    -12.69546454	     -6.10960967	     -3.49980258	     22.30196244	     90.00000001	      0.00000000	      0.00000000
      2.82000000	     -2.52527335	     -2.38628125	     -0.90279440	      1.36363575	      0.87489403	     -0.15991868	     -6.44104297	     -0.79768384	     -3.02918080	      7.02851166	     11.80901160	      0.12267067	     15.75546611	      3.71998928	     -7.50023100	     27.27444851	    -13.71247159	     -2.72249104	     23.55941410	     18.61700426	      0.41118935	     -0.56424602	    -14.08782201	     -7.50023100	    -13.07682354	      3.94914220	      4.98910020	      5.60202729	    -21.14060528	      0.88149079	     40.35714325	     90.00000001	      0.00000000	      0.00000000	    -12.84551134	     -5.92127910	     -3.54310982	     22.29330606	     90.00000001	      0.00000000	      0.00000000
